<svg xmlns="http://www.w3.org/2000/svg" version="1.0" width="173.000000pt" height="131.000000pt" viewBox="0 0 173.000000 131.000000" preserveAspectRatio="xMidYMid meet">

<g transform="translate(0.000000,131.000000) scale(0.100000,-0.100000)" fill="#1c1c1c" stroke="none">
<path d="M158 1303 c6 -2 18 -2 25 0 6 3 1 5 -13 5 -14 0 -19 -2 -12 -5z" fill="#1c1c1c"/>
<path d="M738 1303 c6 -2 18 -2 25 0 6 3 1 5 -13 5 -14 0 -19 -2 -12 -5z" fill="#1c1c1c"/>
<path d="M1476 1298 c44 -77 131 -188 146 -188 10 0 32 12 48 28 l31 27 -51 73 c-28 39 -53 72 -56 72 -6 0 32 -67 53 -91 18 -21 16 -39 -4 -55 -31 -23 -47 -16 -86 36 -47 63 -52 76 -37 95 11 13 8 15 -19 15 -23 0 -30 -4 -25 -12z" fill="#1c1c1c"/>
<path d="M1266 1265 c-20 -21 -20 -39 0 -59 20 -21 30 -20 55 5 18 18 19 23 6 42 -18 28 -40 32 -61 12z m42 -4 c19 -12 11 -45 -12 -49 -24 -5 -37 17 -25 40 11 20 18 22 37 9z" fill="#1c1c1c"/>
<path d="M1540 1264 c0 -5 9 -22 20 -39 11 -16 20 -24 20 -17 0 8 -9 25 -20 39 -11 14 -20 22 -20 17z" fill="#1c1c1c"/>
<path d="M383 1248 c-20 -25 -24 -42 -5 -19 16 20 22 22 43 12 23 -11 23 -11 5 3 -24 19 -31 20 -43 4z" fill="#1c1c1c"/>
<path d="M493 1238 c-34 -7 -43 -14 -43 -30 0 -20 0 -20 18 1 12 16 30 22 64 23 27 1 42 6 35 10 -14 9 -19 9 -74 -4z" fill="#1c1c1c"/>
<path d="M604 1216 c10 -8 25 -27 33 -43 16 -31 9 -78 -10 -67 -9 5 -9 4 0 -6 9 -10 14 -10 26 1 7 8 12 21 9 29 -11 42 -35 81 -55 90 -21 10 -21 10 -3 -4z" fill="#1c1c1c"/>
<path d="M470 1186 c0 -3 14 -12 30 -21 17 -9 30 -13 30 -11 0 3 -13 12 -30 21 -16 9 -30 13 -30 11z" fill="#1c1c1c"/>
<path d="M305 1114 c-20 -37 -34 -68 -32 -70 2 -2 20 28 41 66 20 39 35 70 33 70 -3 0 -22 -30 -42 -66z" fill="#1c1c1c"/>
<path d="M574 1126 c11 -9 24 -16 30 -16 12 0 7 5 -24 19 -24 11 -24 11 -6 -3z" fill="#1c1c1c"/>
<path d="M380 1116 c0 -2 7 -7 16 -10 8 -3 12 -2 9 4 -6 10 -25 14 -25 6z" fill="#1c1c1c"/>
<path d="M427 1089 c7 -7 15 -10 18 -7 3 3 -2 9 -12 12 -14 6 -15 5 -6 -5z" fill="#1c1c1c"/>
<path d="M700 1096 c0 -2 8 -10 18 -17 15 -13 16 -12 3 4 -13 16 -21 21 -21 13z" fill="#1c1c1c"/>
<path d="M380 1065 c0 -2 27 -18 60 -35 33 -17 60 -28 60 -25 0 2 -27 18 -60 35 -33 17 -60 28 -60 25z" fill="#1c1c1c"/>
<path d="M490 1056 c0 -2 7 -7 16 -10 8 -3 12 -2 9 4 -6 10 -25 14 -25 6z" fill="#1c1c1c"/>
<path d="M706 1043 c-6 -14 -5 -15 5 -6 7 7 10 15 7 18 -3 3 -9 -2 -12 -12z" fill="#1c1c1c"/>
<path d="M235 980 c-14 -27 -23 -50 -20 -50 2 0 16 23 30 50 14 28 23 50 20 50 -2 0 -16 -22 -30 -50z" fill="#1c1c1c"/>
<path d="M340 1017 c0 -7 111 -69 116 -65 2 2 -24 19 -56 37 -33 18 -60 30 -60 28z" fill="#1c1c1c"/>
<path d="M660 960 c-17 -33 -28 -60 -25 -60 2 0 18 27 35 60 17 33 28 60 25 60 -2 0 -18 -27 -35 -60z" fill="#1c1c1c"/>
<path d="M320 976 c0 -3 9 -10 20 -16 11 -6 20 -8 20 -6 0 3 -9 10 -20 16 -11 6 -20 8 -20 6z" fill="#1c1c1c"/>
<path d="M1589 951 c-21 -16 -22 -22 -11 -45 19 -43 72 -28 72 21 0 34 -33 47 -61 24z m46 -26 c0 -13 -8 -21 -22 -23 -19 -3 -23 1 -23 23 0 22 4 26 23 23 14 -2 22 -10 22 -23z" fill="#1c1c1c"/>
<path d="M370 946 c0 -2 7 -7 16 -10 8 -3 12 -2 9 4 -6 10 -25 14 -25 6z" fill="#1c1c1c"/>
<path d="M174 869 c-14 -28 -22 -55 -17 -59 14 -12 243 -131 243 -126 0 3 -48 31 -107 62 -60 31 -113 61 -120 67 -9 7 -6 21 12 58 14 27 23 49 20 49 -2 0 -16 -23 -31 -51z" fill="#1c1c1c"/>
<path d="M437 909 c7 -7 15 -10 18 -7 3 3 -2 9 -12 12 -14 6 -15 5 -6 -5z" fill="#1c1c1c"/>
<path d="M320 895 c0 -2 18 -14 40 -25 22 -11 40 -18 40 -15 0 2 -18 14 -40 25 -22 11 -40 18 -40 15z" fill="#1c1c1c"/>
<path d="M500 891 c0 -5 5 -13 10 -16 6 -3 10 -2 10 4 0 5 -4 13 -10 16 -5 3 -10 2 -10 -4z" fill="#1c1c1c"/>
<path d="M585 824 c-20 -37 -34 -68 -32 -71 3 -2 21 28 41 67 46 89 40 92 -9 4z" fill="#1c1c1c"/>
<path d="M290 860 c23 -17 110 -61 110 -55 0 2 -24 17 -52 32 -60 32 -80 40 -58 23z" fill="#1c1c1c"/>
<path d="M190 843 c0 -12 78 -63 96 -63 5 0 -11 12 -36 26 -25 14 -48 31 -52 37 -6 9 -8 9 -8 0z" fill="#1c1c1c"/>
<path d="M473 795 c-9 -10 -9 -14 0 -18 7 -2 18 1 24 8 9 10 9 14 0 18 -7 2 -18 -1 -24 -8z" fill="#1c1c1c"/>
<path d="M1030 782 c-16 -13 -21 -24 -16 -40 13 -38 69 -40 81 -1 13 40 -32 68 -65 41z m48 -26 c5 -24 -10 -38 -31 -30 -17 6 -23 35 -10 48 12 12 38 1 41 -18z" fill="#1c1c1c"/>
<path d="M520 700 c-24 -47 -39 -56 -72 -40 -22 11 -22 10 -4 -4 34 -28 54 -19 81 34 14 28 23 50 20 50 -2 0 -14 -18 -25 -40z" fill="#1c1c1c"/>
<path d="M673 622 c-18 -11 -153 -203 -153 -217 0 -16 20 -38 61 -69 43 -31 70 -33 94 -6 10 11 23 20 29 20 20 0 205 -132 211 -151 3 -10 1 -28 -5 -39 -16 -30 -5 -53 44 -88 54 -39 69 -40 99 -6 44 51 137 187 137 201 0 18 -38 54 -84 78 -35 19 -36 19 -65 -3 -17 -12 -36 -22 -43 -22 -7 0 -56 31 -108 69 l-95 68 3 51 c3 49 2 51 -44 86 -48 37 -60 41 -81 28z m78 -39 l40 -26 -6 -52 c-7 -49 -6 -52 27 -77 76 -57 168 -118 179 -118 7 0 9 -9 5 -25 -9 -34 -2 -31 24 10 34 56 50 59 103 22 27 -18 47 -40 47 -50 0 -22 -124 -202 -144 -210 -8 -3 -35 8 -61 24 l-47 30 6 47 c4 26 3 52 -1 58 -11 15 -194 144 -205 144 -14 0 -9 21 13 52 12 16 19 31 16 34 -2 2 -22 -21 -43 -52 -53 -77 -66 -82 -115 -48 -62 42 -63 53 -21 115 86 125 107 149 124 149 10 0 37 -12 59 -27z" fill="#1c1c1c"/>
<path d="M680 580 c0 -5 4 -10 9 -10 5 0 18 -3 28 -7 16 -6 16 -5 4 10 -15 19 -41 23 -41 7z" fill="#1c1c1c"/>
<path d="M647 543 c-4 -3 -7 -11 -7 -17 0 -6 5 -5 12 2 6 6 9 14 7 17 -3 3 -9 2 -12 -2z" fill="#1c1c1c"/>
<path d="M960 229 c0 -5 5 -7 10 -4 6 3 10 8 10 11 0 2 -4 4 -10 4 -5 0 -10 -5 -10 -11z" fill="#1c1c1c"/>
<path d="M1021 99 c-16 -13 -18 -19 -8 -19 15 0 43 27 36 34 -2 3 -15 -4 -28 -15z" fill="#1c1c1c"/>
<path d="M250 545 c-10 -12 -10 -21 -2 -40 14 -31 56 -34 72 -5 24 44 -38 83 -70 45z m58 -23 c4 -30 -26 -42 -44 -17 -10 14 -11 22 -2 32 16 20 42 12 46 -15z" fill="#1c1c1c"/>
<path d="M1434 511 c-96 -44 -137 -166 -88 -263 8 -15 45 -71 83 -125 52 -72 67 -101 59 -110 -14 -18 4 -16 28 2 25 19 38 19 30 0 -4 -11 2 -15 20 -15 22 0 23 2 14 20 -11 20 -19 23 -55 21 -15 -1 -41 27 -100 111 -75 106 -79 115 -83 173 -4 72 15 114 71 159 34 27 46 31 100 30 72 -1 115 -20 151 -67 25 -32 46 -97 32 -97 -4 0 -15 20 -25 43 -28 64 -84 107 -140 107 -131 0 -210 -125 -151 -239 49 -97 157 -124 252 -65 20 13 45 37 54 54 11 18 24 28 32 25 11 -4 13 0 7 17 -4 13 -11 47 -15 76 -10 65 -45 113 -103 141 -54 26 -119 27 -173 2z m116 -31 c11 -7 6 -10 -20 -10 -101 0 -164 -118 -110 -205 22 -35 73 -65 112 -65 37 0 101 42 127 83 16 24 28 34 34 28 7 -7 1 -25 -17 -51 -37 -57 -114 -93 -170 -80 -51 11 -86 38 -113 86 -26 45 -29 90 -10 137 17 39 35 55 84 73 46 16 63 17 83 4z m28 -35 c48 -20 96 -88 87 -125 -8 -33 -41 -68 -87 -91 -45 -23 -60 -24 -99 -4 -90 47 -90 182 0 219 46 19 53 19 99 1z" fill="#1c1c1c"/>
<path d="M0 289 c0 -6 12 -25 26 -41 18 -22 22 -34 15 -41 -21 -21 -11 -50 45 -128 52 -75 57 -79 93 -79 39 0 61 14 61 40 0 15 -112 179 -131 191 -6 3 -21 4 -33 2 -18 -4 -28 3 -45 31 -24 38 -31 44 -31 25z m100 -78 c0 -13 -50 -44 -58 -36 -4 4 4 15 17 26 25 20 41 24 41 10z m71 -83 c44 -65 44 -77 2 -105 -20 -13 -24 -10 -67 52 -25 36 -46 70 -46 75 0 11 41 40 57 40 7 0 31 -28 54 -62z" fill="#1c1c1c"/>
<path d="M91 135 c-1 -5 8 -21 19 -35 11 -14 20 -20 20 -14 0 7 -9 22 -20 35 -10 13 -19 20 -19 14z" fill="#1c1c1c"/>
<path d="M145 50 c3 -5 8 -10 11 -10 2 0 4 5 4 10 0 6 -5 10 -11 10 -5 0 -7 -4 -4 -10z" fill="#1c1c1c"/>
<path d="M722 48 c-14 -14 -16 -48 -4 -48 5 0 8 10 8 22 -1 34 46 32 55 -2 l7 -25 1 26 c1 36 -41 53 -67 27z" fill="#1c1c1c"/>
</g>
</svg>