<svg width="42" height="52" viewBox="0 0 42 52" fill="none" xmlns="http://www.w3.org/2000/svg">
<path d="M13.3375 48.1534L17.7658 43.6127L12.5196 38.2334L8.09131 42.774L13.3375 48.1534ZM15.4529 43.6127L13.3375 45.7818L10.4042 42.774L12.5196 40.605L15.4529 43.6127Z" fill="#FAFF00"/>
<path d="M41.4859 6.70964L34.9437 0.0014977L32.6359 0L0.249512 32.356V33.8959L1.54693 35.2259L0.249512 36.5562V38.9113L12.1636 52H14.4941L21.5168 44.7987V42.4495L14.4473 34.4769L41.4859 6.70964ZM1.88561 33.2014V33.064L6.44569 28.508L10.3047 32.4649L11.4611 31.2791L7.61747 27.3379L8.93199 26.0252L11.1233 28.2721L12.2797 27.0863L10.1041 24.8555L11.4187 23.5428L15.2142 27.4346L16.3706 26.2488L12.5908 22.3731L13.9053 21.0604L16.0328 23.2418L17.1892 22.0561L15.0771 19.8904L16.3917 18.5777L20.1232 22.4039L21.2797 21.2181L17.5638 17.408L18.8783 16.0953L20.9422 18.2115L22.0986 17.0257L20.0505 14.9256L21.365 13.6129L25.0326 17.3736L26.1891 16.1878L22.5368 12.4428L23.8513 11.1301L25.8513 13.1809L27.0078 11.9951L25.0235 9.96042L26.338 8.64772L29.9418 12.3429L31.0982 11.1571L27.5036 7.46902L28.8181 6.15632L30.7542 8.14153L31.9107 6.95573L29.9892 4.98548L31.3037 3.67278L34.8439 7.30282L36.0003 6.11702L32.4751 2.50233L33.2993 1.67784H34.2662L39.1725 6.7101L13.0306 33.5574L4.03308 32.6768L2.70285 34.0408L1.88561 33.2014ZM1.88561 37.2504L4.64544 34.4205L11.5335 35.0949L5.06245 41.7401L1.88561 38.2501V37.2504ZM19.8806 43.0989V44.1046L13.8164 50.3226H12.8751L6.1803 42.9679L13.2906 35.6651L19.8806 43.0989Z" fill="#FAFF00"/>
</svg>
