<svg width="44" height="44" viewBox="0 0 44 44" fill="none" xmlns="http://www.w3.org/2000/svg">
<path d="M6.01882 43.5695H6.01092C3.60911 43.5695 1.65503 41.6158 1.65503 39.214V25.3085C1.65503 24.8071 2.06131 24.4008 2.56279 24.4008H9.46663C9.96806 24.4008 10.3744 24.807 10.3744 25.3085V39.2148C10.3744 41.6163 8.42064 43.57 6.01884 43.57L6.01882 43.5695ZM3.47052 26.2159V39.2145C3.47052 40.6147 4.61007 41.7543 6.01098 41.7543H6.01888C7.41946 41.7543 8.559 40.6147 8.559 39.2141V26.2164L3.47052 26.2159Z" fill="#FAFF00"/>
<path d="M8.10329 26.2159H3.92558C3.42415 26.2159 3.01782 25.8097 3.01782 25.3082V22.4941C3.01782 21.4929 3.83204 20.6787 4.83325 20.6787H7.19553C8.19676 20.6787 9.01096 21.4929 9.01096 22.4941V25.3082C9.01096 25.8093 8.60476 26.2159 8.10329 26.2159ZM4.83325 24.4005H7.19553V22.4942H4.83325V24.4005Z" fill="#FAFF00"/>
<path d="M39.3682 26.2159H35.1905C34.689 26.2159 34.2827 25.8097 34.2827 25.3082V22.4941C34.2827 21.4929 35.0969 20.6787 36.0981 20.6787H38.4604C39.4616 20.6787 40.2758 21.4929 40.2758 22.4941V25.3082C40.2758 25.8093 39.8693 26.2159 39.3682 26.2159ZM36.0981 24.4005H38.4604V22.4942H36.0981V24.4005Z" fill="#FAFF00"/>
<path d="M37.2838 43.5695H37.2752C34.8734 43.5695 32.9197 41.6158 32.9197 39.214V25.3085C32.9197 24.8071 33.326 24.4008 33.8274 24.4008H40.7313C41.2327 24.4008 41.639 24.807 41.639 25.3085V39.2148C41.639 41.6163 39.6853 43.57 37.2838 43.57L37.2838 43.5695ZM34.7352 26.2159V39.2145C34.7352 40.6147 35.8747 41.7543 37.2753 41.7543H37.2838C38.6844 41.7543 39.824 40.6147 39.824 39.2141L39.8236 26.2164L34.7352 26.2159Z" fill="#FAFF00"/>
<path d="M11.1215 26.216H0.907758C0.406325 26.216 0 25.8097 0 25.3083C0 24.8068 0.406283 24.4005 0.907758 24.4005H11.1215C11.6229 24.4005 12.0293 24.8068 12.0293 25.3083C12.0293 25.8094 11.623 26.216 11.1215 26.216Z" fill="#FAFF00"/>
<path d="M42.3865 26.216H32.1736C31.6722 26.216 31.2659 25.8097 31.2659 25.3083C31.2659 24.8068 31.6722 24.4005 32.1736 24.4005H42.3865C42.888 24.4005 43.2943 24.8068 43.2943 25.3083C43.2943 25.8094 42.888 26.216 42.3869 26.216H42.3865Z" fill="#FAFF00"/>
<path d="M21.9009 31.601C19.2303 31.601 17.0584 29.4289 17.0584 26.7585V6.88311C17.0584 4.08853 14.7846 1.81543 11.9904 1.81543C9.19579 1.81543 6.92269 4.08853 6.92269 6.88311V21.5859C6.92269 22.0873 6.51641 22.4937 6.01494 22.4937C5.51346 22.4937 5.10718 22.0874 5.10718 21.5859V6.88311C5.10718 3.08798 8.19515 0 11.9903 0C15.7858 0 18.8737 3.08798 18.8737 6.88311V26.7585C18.8737 28.4278 20.2318 29.7856 21.9008 29.7856C23.5704 29.7856 24.9285 28.4275 24.9285 26.7585V14.8683C24.9285 11.2128 27.9025 8.23876 31.5581 8.23876C35.2136 8.23876 38.1876 11.2128 38.1876 14.8683L38.1873 21.5862C38.1873 22.0876 37.781 22.4939 37.2795 22.4939C36.7781 22.4939 36.3718 22.0876 36.3718 21.5862V14.8683C36.3718 12.214 34.212 10.0542 31.5576 10.0542C28.9033 10.0542 26.7435 12.214 26.7435 14.8683V26.7585C26.7435 29.429 24.5712 31.6013 21.9007 31.6013L21.9009 31.601Z" fill="#FAFF00"/>
<path d="M9.46614 34.8931H2.5623C2.06087 34.8931 1.65454 34.4869 1.65454 33.9854C1.65454 33.4839 2.06082 33.0776 2.5623 33.0776H9.46614C9.96757 33.0776 10.3739 33.4839 10.3739 33.9854C10.3739 34.4865 9.96729 34.8931 9.46614 34.8931Z" fill="#FAFF00"/>
<path d="M9.46614 30.9082H2.5623C2.06087 30.9082 1.65454 30.5019 1.65454 30.0004C1.65454 29.4989 2.06082 29.0927 2.5623 29.0927H9.46614C9.96757 29.0927 10.3739 29.4989 10.3739 30.0004C10.3739 30.5019 9.96729 30.9082 9.46614 30.9082Z" fill="#FAFF00"/>
<path d="M9.46614 38.8774H2.5623C2.06087 38.8774 1.65454 38.4711 1.65454 37.9696C1.65454 37.4682 2.06082 37.0619 2.5623 37.0619H9.46614C9.96757 37.0619 10.3739 37.4682 10.3739 37.9696C10.3739 38.4711 9.96729 38.8774 9.46614 38.8774Z" fill="#FAFF00"/>
<path d="M40.732 34.8931H33.8282C33.3267 34.8931 32.9204 34.4869 32.9204 33.9854C32.9204 33.4839 33.3267 33.0776 33.8282 33.0776H40.732C41.2334 33.0776 41.6398 33.4839 41.6398 33.9854C41.6398 34.4865 41.2335 34.8931 40.732 34.8931Z" fill="#FAFF00"/>
<path d="M40.732 30.9082H33.8282C33.3267 30.9082 32.9204 30.5019 32.9204 30.0004C32.9204 29.4989 33.3267 29.0927 33.8282 29.0927H40.732C41.2334 29.0927 41.6398 29.4989 41.6398 30.0004C41.6398 30.5019 41.2335 30.9082 40.732 30.9082Z" fill="#FAFF00"/>
<path d="M40.732 38.8774H33.8282C33.3267 38.8774 32.9204 38.4711 32.9204 37.9696C32.9204 37.4682 33.3267 37.0619 33.8282 37.0619H40.732C41.2334 37.0619 41.6398 37.4682 41.6398 37.9696C41.6398 38.4711 41.2335 38.8774 40.732 38.8774Z" fill="#FAFF00"/>
</svg>
