<svg width="49" height="48" viewBox="0 0 49 48" fill="none" xmlns="http://www.w3.org/2000/svg">
<path d="M48.0117 23.7238C48.0117 29.9728 45.5292 35.966 41.1104 40.3848C36.6916 44.8037 30.6984 47.2859 24.4493 47.2859C18.2002 47.2859 12.2071 44.8038 7.78823 40.3848C3.36941 35.966 0.887207 29.9729 0.887207 23.7238C0.887207 17.4746 3.36932 11.4815 7.78823 7.06267C12.2071 2.64384 18.2002 0.161377 24.4493 0.161377C24.8561 0.161377 25.1855 0.491119 25.1855 0.897903C25.1855 1.30435 24.8561 1.63409 24.4493 1.63409C19.4484 1.63306 14.5957 3.32869 10.6827 6.44325C6.77061 9.55817 4.03061 13.9082 2.91131 18.7819C1.79166 23.6559 2.35865 28.7653 4.51965 33.2753C6.68024 37.7852 10.3071 41.4285 14.8072 43.6101C19.3071 45.7913 24.4144 46.3816 29.2926 45.2842C34.1716 44.1867 38.5343 41.4666 41.6663 37.5686C44.799 33.6705 46.5166 28.8251 46.5382 23.8247C46.5597 18.8238 44.8843 13.9632 41.7858 10.0388L41.592 11.9793C41.5544 12.3556 41.238 12.6422 40.8599 12.6425C40.836 12.6425 40.811 12.6425 40.786 12.6388C40.3812 12.598 40.0861 12.2371 40.1265 11.8327L40.4946 8.1511H40.4949C40.5353 7.74671 40.8959 7.45154 41.3003 7.49161L44.9788 7.85936C45.3836 7.90011 45.6787 8.26101 45.638 8.66574C45.5972 9.07013 45.2363 9.36529 44.8316 9.32454L42.949 9.13656H42.9493C46.2331 13.2893 48.017 18.43 48.0112 23.7245L48.0117 23.7238ZM24.4493 6.06249C29.1332 6.06249 33.6253 7.9232 36.937 11.2353C40.2487 14.5475 42.1099 19.0396 42.1099 23.7231C42.1099 28.4065 40.2492 32.8991 36.937 36.2108C33.6249 39.5225 29.1328 41.3836 24.4493 41.3836C19.7659 41.3836 15.2733 39.5229 11.9616 36.2108C8.64991 32.8986 6.78876 28.4065 6.78876 23.7231C6.7939 19.0406 8.65666 14.5514 11.9674 11.2406C15.2782 7.92977 19.7672 6.06705 24.4499 6.06197L24.4493 6.06249ZM33.4903 13.6435L35.3558 11.7732C32.5655 9.21571 28.9643 7.72141 25.1831 7.55162V10.2026C25.1831 10.6093 24.8534 10.9387 24.4469 10.9387C24.0401 10.9387 23.7104 10.6093 23.7104 10.2026V7.55162C19.9295 7.72146 16.3283 9.21571 13.5377 11.7732L15.408 13.6431C15.6956 13.9307 15.6956 14.3971 15.408 14.6848C15.1204 14.9724 14.654 14.9724 14.3664 14.6848L12.4964 12.8145C9.93894 15.6048 8.44464 19.206 8.27485 22.9872H10.9258C11.3322 22.9872 11.662 23.3166 11.662 23.7234C11.662 24.1301 11.3322 24.4595 10.9258 24.4595H8.27485C8.44468 28.2408 9.93894 31.842 12.4964 34.6322L14.3664 32.7668C14.5037 32.625 14.692 32.5439 14.8896 32.5425C15.0871 32.5408 15.2772 32.6185 15.4165 32.7582C15.5562 32.8979 15.6336 33.0879 15.6319 33.2855C15.6302 33.4827 15.549 33.6714 15.4069 33.8084L13.5377 35.6738C16.3277 38.2313 19.9285 39.726 23.7095 39.8954V37.2448C23.7095 36.838 24.0393 36.5083 24.4457 36.5083C24.8525 36.5083 25.1822 36.838 25.1822 37.2448V39.8954C28.9635 39.7256 32.5643 38.2313 35.3549 35.6738L33.4895 33.8084H33.4898C33.2022 33.5208 33.2022 33.0544 33.4898 32.7667C33.7774 32.4791 34.2438 32.4791 34.5314 32.7667L36.3969 34.6322H36.3965C38.954 31.8419 40.4487 28.2407 40.6181 24.4595H37.9675C37.5608 24.4595 37.2314 24.1301 37.2314 23.7233C37.2314 23.3165 37.5608 22.9871 37.9675 22.9871H40.6181C40.4486 19.2059 38.9544 15.6051 36.3965 12.8153L34.5311 14.6846H34.5314C34.2424 14.9636 33.7833 14.9599 33.4991 14.676C33.2149 14.3921 33.2108 13.933 33.4899 13.6437L33.4903 13.6435ZM29.7444 27.9773V27.9776C30.032 28.2652 30.032 28.7313 29.7444 29.0189C29.4564 29.3065 28.9904 29.3062 28.7027 29.0185L25.382 25.6978C24.8413 25.9536 24.2198 25.9765 23.6617 25.7615C23.1039 25.5465 22.6585 25.1119 22.4297 24.5593C22.201 24.007 22.2088 23.3848 22.4513 22.8379C22.6937 22.2914 23.1498 21.8683 23.7131 21.6673V14.4749C23.7131 14.0681 24.0425 13.7383 24.4493 13.7383C24.8561 13.7383 25.1855 14.0681 25.1855 14.4749V21.6673C25.7662 21.8744 26.2319 22.3179 26.4675 22.8873C26.7034 23.4567 26.6876 24.0994 26.4236 24.6566L29.7444 27.9773ZM24.4493 24.4354C24.7373 24.4354 24.9968 24.2618 25.1068 23.9957C25.217 23.73 25.1561 23.4239 24.9527 23.2201C24.7489 23.0167 24.4428 22.9558 24.1771 23.0661C23.911 23.176 23.7374 23.4355 23.7374 23.7235C23.7381 24.1162 24.0566 24.4347 24.4493 24.4354Z" fill="#FAFF00"/>
</svg>
